<?xml version="1.0" encoding="UTF-8" standalone="no"?>
<!DOCTYPE svg PUBLIC "-//W3C//DTD SVG 1.1//EN"
 "http://www.w3.org/Graphics/SVG/1.1/DTD/svg11.dtd">
<!-- Generated by graphviz version 14.1.1 (20251213.1925)
 -->
<!-- Title: BFS_Tree Pages: 1 -->
<svg width="854pt" height="310pt"
 viewBox="0.00 0.00 854.00 310.00" xmlns="http://www.w3.org/2000/svg" xmlns:xlink="http://www.w3.org/1999/xlink">
<g id="graph0" class="graph" transform="scale(1 1) rotate(0) translate(4 306.4)">
<title>BFS_Tree</title>
<polygon fill="white" stroke="none" points="-4,4 -4,-306.4 850,-306.4 850,4 -4,4"/>
<!-- 1 -->
<g id="node1" class="node">
<title>1</title>
<ellipse fill="none" stroke="black" cx="423" cy="-284.4" rx="27" ry="18"/>
<text xml:space="preserve" text-anchor="middle" x="423" y="-280.2" font-family="Times,serif" font-size="14.00">1</text>
</g>
<!-- 6 -->
<g id="node2" class="node">
<title>6</title>
<ellipse fill="none" stroke="black" cx="126" cy="-195.6" rx="27" ry="18"/>
<text xml:space="preserve" text-anchor="middle" x="126" y="-191.4" font-family="Times,serif" font-size="14.00">6</text>
</g>
<!-- 1&#45;&gt;6 -->
<g id="edge1" class="edge">
<title>1&#45;&gt;6</title>
<path fill="none" stroke="black" d="M398.44,-276.22C345.96,-260.88 222.67,-224.85 161.59,-207"/>
<polygon fill="black" stroke="black" points="162.62,-203.66 152.04,-204.21 160.66,-210.37 162.62,-203.66"/>
<text xml:space="preserve" text-anchor="middle" x="311.6" y="-235.8" font-family="Times,serif" font-size="14.00">872</text>
</g>
<!-- 20 -->
<g id="node3" class="node">
<title>20</title>
<ellipse fill="none" stroke="black" cx="279" cy="-195.6" rx="27" ry="18"/>
<text xml:space="preserve" text-anchor="middle" x="279" y="-191.4" font-family="Times,serif" font-size="14.00">20</text>
</g>
<!-- 1&#45;&gt;20 -->
<g id="edge2" class="edge">
<title>1&#45;&gt;20</title>
<path fill="none" stroke="black" d="M403.28,-271.51C378.72,-256.71 336.55,-231.29 308.23,-214.22"/>
<polygon fill="black" stroke="black" points="310.15,-211.29 299.78,-209.12 306.54,-217.28 310.15,-211.29"/>
<text xml:space="preserve" text-anchor="middle" x="374.4" y="-235.8" font-family="Times,serif" font-size="14.00">124</text>
</g>
<!-- 12 -->
<g id="node4" class="node">
<title>12</title>
<ellipse fill="none" stroke="black" cx="387" cy="-195.6" rx="27" ry="18"/>
<text xml:space="preserve" text-anchor="middle" x="387" y="-191.4" font-family="Times,serif" font-size="14.00">12</text>
</g>
<!-- 1&#45;&gt;12 -->
<g id="edge3" class="edge">
<title>1&#45;&gt;12</title>
<path fill="none" stroke="black" d="M416.06,-266.66C411.03,-254.54 404.12,-237.87 398.3,-223.84"/>
<polygon fill="black" stroke="black" points="401.56,-222.58 394.5,-214.68 395.1,-225.26 401.56,-222.58"/>
<text xml:space="preserve" text-anchor="middle" x="418.72" y="-235.8" font-family="Times,serif" font-size="14.00">133</text>
</g>
<!-- 14 -->
<g id="node5" class="node">
<title>14</title>
<ellipse fill="none" stroke="black" cx="459" cy="-195.6" rx="27" ry="18"/>
<text xml:space="preserve" text-anchor="middle" x="459" y="-191.4" font-family="Times,serif" font-size="14.00">14</text>
</g>
<!-- 1&#45;&gt;14 -->
<g id="edge4" class="edge">
<title>1&#45;&gt;14</title>
<path fill="none" stroke="black" d="M429.94,-266.66C434.97,-254.54 441.88,-237.87 447.7,-223.84"/>
<polygon fill="black" stroke="black" points="450.9,-225.26 451.5,-214.68 444.44,-222.58 450.9,-225.26"/>
<text xml:space="preserve" text-anchor="middle" x="454.72" y="-235.8" font-family="Times,serif" font-size="14.00">425</text>
</g>
<!-- 4 -->
<g id="node6" class="node">
<title>4</title>
<ellipse fill="none" stroke="black" cx="576" cy="-195.6" rx="27" ry="18"/>
<text xml:space="preserve" text-anchor="middle" x="576" y="-191.4" font-family="Times,serif" font-size="14.00">4</text>
</g>
<!-- 1&#45;&gt;4 -->
<g id="edge5" class="edge">
<title>1&#45;&gt;4</title>
<path fill="none" stroke="black" d="M443,-272.05C469.35,-257.11 515.89,-230.7 546.34,-213.43"/>
<polygon fill="black" stroke="black" points="547.71,-216.68 554.68,-208.7 544.25,-210.59 547.71,-216.68"/>
<text xml:space="preserve" text-anchor="middle" x="523.7" y="-235.8" font-family="Times,serif" font-size="14.00">995</text>
</g>
<!-- 17 -->
<g id="node7" class="node">
<title>17</title>
<ellipse fill="none" stroke="black" cx="711" cy="-195.6" rx="27" ry="18"/>
<text xml:space="preserve" text-anchor="middle" x="711" y="-191.4" font-family="Times,serif" font-size="14.00">17</text>
</g>
<!-- 1&#45;&gt;17 -->
<g id="edge6" class="edge">
<title>1&#45;&gt;17</title>
<path fill="none" stroke="black" d="M447.06,-276.15C497.99,-260.8 616.86,-224.97 676.13,-207.11"/>
<polygon fill="black" stroke="black" points="676.79,-210.57 685.36,-204.33 674.77,-203.86 676.79,-210.57"/>
<text xml:space="preserve" text-anchor="middle" x="603.3" y="-235.8" font-family="Times,serif" font-size="14.00">756</text>
</g>
<!-- 16 -->
<g id="node8" class="node">
<title>16</title>
<ellipse fill="none" stroke="black" cx="27" cy="-106.8" rx="27" ry="18"/>
<text xml:space="preserve" text-anchor="middle" x="27" y="-102.6" font-family="Times,serif" font-size="14.00">16</text>
</g>
<!-- 6&#45;&gt;16 -->
<g id="edge7" class="edge">
<title>6&#45;&gt;16</title>
<path fill="none" stroke="black" d="M109.96,-181.05C102.36,-174.6 93.18,-166.74 85,-159.6 73.83,-149.85 61.57,-138.93 51.21,-129.64"/>
<polygon fill="black" stroke="black" points="53.57,-127.06 43.8,-122.98 48.9,-132.27 53.57,-127.06"/>
<text xml:space="preserve" text-anchor="middle" x="95.5" y="-147" font-family="Times,serif" font-size="14.00">482</text>
</g>
<!-- 21 -->
<g id="node9" class="node">
<title>21</title>
<ellipse fill="none" stroke="black" cx="99" cy="-106.8" rx="27" ry="18"/>
<text xml:space="preserve" text-anchor="middle" x="99" y="-102.6" font-family="Times,serif" font-size="14.00">21</text>
</g>
<!-- 6&#45;&gt;21 -->
<g id="edge8" class="edge">
<title>6&#45;&gt;21</title>
<path fill="none" stroke="black" d="M120.79,-177.86C117.08,-165.93 112.01,-149.61 107.69,-135.72"/>
<polygon fill="black" stroke="black" points="111.04,-134.74 104.73,-126.23 104.36,-136.81 111.04,-134.74"/>
<text xml:space="preserve" text-anchor="middle" x="121.92" y="-147" font-family="Times,serif" font-size="14.00">52</text>
</g>
<!-- 22 -->
<g id="node10" class="node">
<title>22</title>
<ellipse fill="none" stroke="black" cx="171" cy="-106.8" rx="27" ry="18"/>
<text xml:space="preserve" text-anchor="middle" x="171" y="-102.6" font-family="Times,serif" font-size="14.00">22</text>
</g>
<!-- 6&#45;&gt;22 -->
<g id="edge9" class="edge">
<title>6&#45;&gt;22</title>
<path fill="none" stroke="black" d="M134.46,-178.27C140.9,-165.87 149.88,-148.54 157.33,-134.17"/>
<polygon fill="black" stroke="black" points="160.23,-136.18 161.72,-125.69 154.01,-132.96 160.23,-136.18"/>
<text xml:space="preserve" text-anchor="middle" x="163.03" y="-147" font-family="Times,serif" font-size="14.00">229</text>
</g>
<!-- 9 -->
<g id="node11" class="node">
<title>9</title>
<ellipse fill="none" stroke="black" cx="243" cy="-106.8" rx="27" ry="18"/>
<text xml:space="preserve" text-anchor="middle" x="243" y="-102.6" font-family="Times,serif" font-size="14.00">9</text>
</g>
<!-- 20&#45;&gt;9 -->
<g id="edge10" class="edge">
<title>20&#45;&gt;9</title>
<path fill="none" stroke="black" d="M272.06,-177.86C267.03,-165.74 260.12,-149.07 254.3,-135.04"/>
<polygon fill="black" stroke="black" points="257.56,-133.78 250.5,-125.88 251.1,-136.46 257.56,-133.78"/>
<text xml:space="preserve" text-anchor="middle" x="274.72" y="-147" font-family="Times,serif" font-size="14.00">767</text>
</g>
<!-- 2 -->
<g id="node12" class="node">
<title>2</title>
<ellipse fill="none" stroke="black" cx="315" cy="-106.8" rx="27" ry="18"/>
<text xml:space="preserve" text-anchor="middle" x="315" y="-102.6" font-family="Times,serif" font-size="14.00">2</text>
</g>
<!-- 12&#45;&gt;2 -->
<g id="edge11" class="edge">
<title>12&#45;&gt;2</title>
<path fill="none" stroke="black" d="M374.46,-179.48C363.48,-166.24 347.34,-146.79 334.65,-131.49"/>
<polygon fill="black" stroke="black" points="337.68,-129.66 328.61,-124.2 332.3,-134.13 337.68,-129.66"/>
<text xml:space="preserve" text-anchor="middle" x="367.95" y="-147" font-family="Times,serif" font-size="14.00">600</text>
</g>
<!-- 19 -->
<g id="node13" class="node">
<title>19</title>
<ellipse fill="none" stroke="black" cx="387" cy="-106.8" rx="27" ry="18"/>
<text xml:space="preserve" text-anchor="middle" x="387" y="-102.6" font-family="Times,serif" font-size="14.00">19</text>
</g>
<!-- 12&#45;&gt;19 -->
<g id="edge12" class="edge">
<title>12&#45;&gt;19</title>
<path fill="none" stroke="black" d="M387,-177.45C387,-165.76 387,-149.99 387,-136.42"/>
<polygon fill="black" stroke="black" points="390.5,-136.72 387,-126.72 383.5,-136.72 390.5,-136.72"/>
<text xml:space="preserve" text-anchor="middle" x="397.5" y="-147" font-family="Times,serif" font-size="14.00">724</text>
</g>
<!-- 13 -->
<g id="node14" class="node">
<title>13</title>
<ellipse fill="none" stroke="black" cx="459" cy="-106.8" rx="27" ry="18"/>
<text xml:space="preserve" text-anchor="middle" x="459" y="-102.6" font-family="Times,serif" font-size="14.00">13</text>
</g>
<!-- 14&#45;&gt;13 -->
<g id="edge13" class="edge">
<title>14&#45;&gt;13</title>
<path fill="none" stroke="black" d="M459,-177.45C459,-165.76 459,-149.99 459,-136.42"/>
<polygon fill="black" stroke="black" points="462.5,-136.72 459,-126.72 455.5,-136.72 462.5,-136.72"/>
<text xml:space="preserve" text-anchor="middle" x="469.5" y="-147" font-family="Times,serif" font-size="14.00">889</text>
</g>
<!-- 5 -->
<g id="node15" class="node">
<title>5</title>
<ellipse fill="none" stroke="black" cx="531" cy="-106.8" rx="27" ry="18"/>
<text xml:space="preserve" text-anchor="middle" x="531" y="-102.6" font-family="Times,serif" font-size="14.00">5</text>
</g>
<!-- 14&#45;&gt;5 -->
<g id="edge14" class="edge">
<title>14&#45;&gt;5</title>
<path fill="none" stroke="black" d="M471.54,-179.48C482.52,-166.24 498.66,-146.79 511.35,-131.49"/>
<polygon fill="black" stroke="black" points="513.7,-134.13 517.39,-124.2 508.32,-129.66 513.7,-134.13"/>
<text xml:space="preserve" text-anchor="middle" x="511.95" y="-147" font-family="Times,serif" font-size="14.00">866</text>
</g>
<!-- 24 -->
<g id="node16" class="node">
<title>24</title>
<ellipse fill="none" stroke="black" cx="603" cy="-106.8" rx="27" ry="18"/>
<text xml:space="preserve" text-anchor="middle" x="603" y="-102.6" font-family="Times,serif" font-size="14.00">24</text>
</g>
<!-- 4&#45;&gt;24 -->
<g id="edge15" class="edge">
<title>4&#45;&gt;24</title>
<path fill="none" stroke="black" d="M581.21,-177.86C584.92,-165.93 589.99,-149.61 594.31,-135.72"/>
<polygon fill="black" stroke="black" points="597.64,-136.81 597.27,-126.23 590.96,-134.74 597.64,-136.81"/>
<text xml:space="preserve" text-anchor="middle" x="602.42" y="-147" font-family="Times,serif" font-size="14.00">288</text>
</g>
<!-- 3 -->
<g id="node17" class="node">
<title>3</title>
<ellipse fill="none" stroke="black" cx="675" cy="-106.8" rx="27" ry="18"/>
<text xml:space="preserve" text-anchor="middle" x="675" y="-102.6" font-family="Times,serif" font-size="14.00">3</text>
</g>
<!-- 17&#45;&gt;3 -->
<g id="edge16" class="edge">
<title>17&#45;&gt;3</title>
<path fill="none" stroke="black" d="M704.06,-177.86C699.03,-165.74 692.12,-149.07 686.3,-135.04"/>
<polygon fill="black" stroke="black" points="689.56,-133.78 682.5,-125.88 683.1,-136.46 689.56,-133.78"/>
<text xml:space="preserve" text-anchor="middle" x="706.72" y="-147" font-family="Times,serif" font-size="14.00">362</text>
</g>
<!-- 25 -->
<g id="node18" class="node">
<title>25</title>
<ellipse fill="none" stroke="black" cx="747" cy="-106.8" rx="27" ry="18"/>
<text xml:space="preserve" text-anchor="middle" x="747" y="-102.6" font-family="Times,serif" font-size="14.00">25</text>
</g>
<!-- 17&#45;&gt;25 -->
<g id="edge17" class="edge">
<title>17&#45;&gt;25</title>
<path fill="none" stroke="black" d="M717.94,-177.86C722.97,-165.74 729.88,-149.07 735.7,-135.04"/>
<polygon fill="black" stroke="black" points="738.9,-136.46 739.5,-125.88 732.44,-133.78 738.9,-136.46"/>
<text xml:space="preserve" text-anchor="middle" x="739.22" y="-147" font-family="Times,serif" font-size="14.00">87</text>
</g>
<!-- 10 -->
<g id="node19" class="node">
<title>10</title>
<ellipse fill="none" stroke="black" cx="819" cy="-106.8" rx="27" ry="18"/>
<text xml:space="preserve" text-anchor="middle" x="819" y="-102.6" font-family="Times,serif" font-size="14.00">10</text>
</g>
<!-- 17&#45;&gt;10 -->
<g id="edge18" class="edge">
<title>17&#45;&gt;10</title>
<path fill="none" stroke="black" d="M727.88,-181.04C745.47,-166.9 773.26,-144.56 793.52,-128.28"/>
<polygon fill="black" stroke="black" points="795.46,-131.21 801.06,-122.22 791.08,-125.75 795.46,-131.21"/>
<text xml:space="preserve" text-anchor="middle" x="785.17" y="-147" font-family="Times,serif" font-size="14.00">204</text>
</g>
<!-- 7 -->
<g id="node20" class="node">
<title>7</title>
<ellipse fill="none" stroke="black" cx="27" cy="-18" rx="27" ry="18"/>
<text xml:space="preserve" text-anchor="middle" x="27" y="-13.8" font-family="Times,serif" font-size="14.00">7</text>
</g>
<!-- 16&#45;&gt;7 -->
<g id="edge19" class="edge">
<title>16&#45;&gt;7</title>
<path fill="none" stroke="black" d="M27,-88.65C27,-76.96 27,-61.19 27,-47.62"/>
<polygon fill="black" stroke="black" points="30.5,-47.92 27,-37.92 23.5,-47.92 30.5,-47.92"/>
<text xml:space="preserve" text-anchor="middle" x="37.5" y="-58.2" font-family="Times,serif" font-size="14.00">641</text>
</g>
<!-- 23 -->
<g id="node21" class="node">
<title>23</title>
<ellipse fill="none" stroke="black" cx="135" cy="-18" rx="27" ry="18"/>
<text xml:space="preserve" text-anchor="middle" x="135" y="-13.8" font-family="Times,serif" font-size="14.00">23</text>
</g>
<!-- 22&#45;&gt;23 -->
<g id="edge20" class="edge">
<title>22&#45;&gt;23</title>
<path fill="none" stroke="black" d="M164.06,-89.06C159.03,-76.94 152.12,-60.27 146.3,-46.24"/>
<polygon fill="black" stroke="black" points="149.56,-44.98 142.5,-37.08 143.1,-47.66 149.56,-44.98"/>
<text xml:space="preserve" text-anchor="middle" x="166.72" y="-58.2" font-family="Times,serif" font-size="14.00">429</text>
</g>
<!-- 8 -->
<g id="node22" class="node">
<title>8</title>
<ellipse fill="none" stroke="black" cx="207" cy="-18" rx="27" ry="18"/>
<text xml:space="preserve" text-anchor="middle" x="207" y="-13.8" font-family="Times,serif" font-size="14.00">8</text>
</g>
<!-- 22&#45;&gt;8 -->
<g id="edge21" class="edge">
<title>22&#45;&gt;8</title>
<path fill="none" stroke="black" d="M177.94,-89.06C182.97,-76.94 189.88,-60.27 195.7,-46.24"/>
<polygon fill="black" stroke="black" points="198.9,-47.66 199.5,-37.08 192.44,-44.98 198.9,-47.66"/>
<text xml:space="preserve" text-anchor="middle" x="202.72" y="-58.2" font-family="Times,serif" font-size="14.00">663</text>
</g>
<!-- 18 -->
<g id="node23" class="node">
<title>18</title>
<ellipse fill="none" stroke="black" cx="387" cy="-18" rx="27" ry="18"/>
<text xml:space="preserve" text-anchor="middle" x="387" y="-13.8" font-family="Times,serif" font-size="14.00">18</text>
</g>
<!-- 19&#45;&gt;18 -->
<g id="edge22" class="edge">
<title>19&#45;&gt;18</title>
<path fill="none" stroke="black" d="M387,-88.65C387,-76.96 387,-61.19 387,-47.62"/>
<polygon fill="black" stroke="black" points="390.5,-47.92 387,-37.92 383.5,-47.92 390.5,-47.92"/>
<text xml:space="preserve" text-anchor="middle" x="397.5" y="-58.2" font-family="Times,serif" font-size="14.00">642</text>
</g>
<!-- 11 -->
<g id="node24" class="node">
<title>11</title>
<ellipse fill="none" stroke="black" cx="531" cy="-18" rx="27" ry="18"/>
<text xml:space="preserve" text-anchor="middle" x="531" y="-13.8" font-family="Times,serif" font-size="14.00">11</text>
</g>
<!-- 5&#45;&gt;11 -->
<g id="edge23" class="edge">
<title>5&#45;&gt;11</title>
<path fill="none" stroke="black" d="M531,-88.65C531,-76.96 531,-61.19 531,-47.62"/>
<polygon fill="black" stroke="black" points="534.5,-47.92 531,-37.92 527.5,-47.92 534.5,-47.92"/>
<text xml:space="preserve" text-anchor="middle" x="541.5" y="-58.2" font-family="Times,serif" font-size="14.00">788</text>
</g>
<!-- 15 -->
<g id="node25" class="node">
<title>15</title>
<ellipse fill="none" stroke="black" cx="819" cy="-18" rx="27" ry="18"/>
<text xml:space="preserve" text-anchor="middle" x="819" y="-13.8" font-family="Times,serif" font-size="14.00">15</text>
</g>
<!-- 10&#45;&gt;15 -->
<g id="edge24" class="edge">
<title>10&#45;&gt;15</title>
<path fill="none" stroke="black" d="M819,-88.65C819,-76.96 819,-61.19 819,-47.62"/>
<polygon fill="black" stroke="black" points="822.5,-47.92 819,-37.92 815.5,-47.92 822.5,-47.92"/>
<text xml:space="preserve" text-anchor="middle" x="829.5" y="-58.2" font-family="Times,serif" font-size="14.00">431</text>
</g>
</g>
</svg>
