<?xml version="1.0" encoding="UTF-8" standalone="no"?>
<!DOCTYPE svg PUBLIC "-//W3C//DTD SVG 1.1//EN"
 "http://www.w3.org/Graphics/SVG/1.1/DTD/svg11.dtd">
<!-- Generated by graphviz version 14.1.1 (20251213.1925)
 -->
<!-- Title: DFS_Tree Pages: 1 -->
<svg width="206pt" height="1731pt"
 viewBox="0.00 0.00 206.00 1731.00" xmlns="http://www.w3.org/2000/svg" xmlns:xlink="http://www.w3.org/1999/xlink">
<g id="graph0" class="graph" transform="scale(1 1) rotate(0) translate(4 1727.2)">
<title>DFS_Tree</title>
<polygon fill="white" stroke="none" points="-4,4 -4,-1727.2 202,-1727.2 202,4 -4,4"/>
<!-- 1 -->
<g id="node1" class="node">
<title>1</title>
<ellipse fill="none" stroke="black" cx="135" cy="-1705.2" rx="27" ry="18"/>
<text xml:space="preserve" text-anchor="middle" x="135" y="-1701" font-family="Times,serif" font-size="14.00">1</text>
</g>
<!-- 6 -->
<g id="node2" class="node">
<title>6</title>
<ellipse fill="none" stroke="black" cx="135" cy="-1616.4" rx="27" ry="18"/>
<text xml:space="preserve" text-anchor="middle" x="135" y="-1612.2" font-family="Times,serif" font-size="14.00">6</text>
</g>
<!-- 1&#45;&gt;6 -->
<g id="edge1" class="edge">
<title>1&#45;&gt;6</title>
<path fill="none" stroke="black" d="M135,-1687.05C135,-1675.36 135,-1659.59 135,-1646.02"/>
<polygon fill="black" stroke="black" points="138.5,-1646.32 135,-1636.32 131.5,-1646.32 138.5,-1646.32"/>
<text xml:space="preserve" text-anchor="middle" x="145.5" y="-1656.6" font-family="Times,serif" font-size="14.00">872</text>
</g>
<!-- 16 -->
<g id="node3" class="node">
<title>16</title>
<ellipse fill="none" stroke="black" cx="135" cy="-1527.6" rx="27" ry="18"/>
<text xml:space="preserve" text-anchor="middle" x="135" y="-1523.4" font-family="Times,serif" font-size="14.00">16</text>
</g>
<!-- 6&#45;&gt;16 -->
<g id="edge2" class="edge">
<title>6&#45;&gt;16</title>
<path fill="none" stroke="black" d="M135,-1598.25C135,-1586.56 135,-1570.79 135,-1557.22"/>
<polygon fill="black" stroke="black" points="138.5,-1557.52 135,-1547.52 131.5,-1557.52 138.5,-1557.52"/>
<text xml:space="preserve" text-anchor="middle" x="145.5" y="-1567.8" font-family="Times,serif" font-size="14.00">482</text>
</g>
<!-- 7 -->
<g id="node4" class="node">
<title>7</title>
<ellipse fill="none" stroke="black" cx="135" cy="-1438.8" rx="27" ry="18"/>
<text xml:space="preserve" text-anchor="middle" x="135" y="-1434.6" font-family="Times,serif" font-size="14.00">7</text>
</g>
<!-- 16&#45;&gt;7 -->
<g id="edge3" class="edge">
<title>16&#45;&gt;7</title>
<path fill="none" stroke="black" d="M135,-1509.45C135,-1497.76 135,-1481.99 135,-1468.42"/>
<polygon fill="black" stroke="black" points="138.5,-1468.72 135,-1458.72 131.5,-1468.72 138.5,-1468.72"/>
<text xml:space="preserve" text-anchor="middle" x="145.5" y="-1479" font-family="Times,serif" font-size="14.00">641</text>
</g>
<!-- 25 -->
<g id="node5" class="node">
<title>25</title>
<ellipse fill="none" stroke="black" cx="135" cy="-1350" rx="27" ry="18"/>
<text xml:space="preserve" text-anchor="middle" x="135" y="-1345.8" font-family="Times,serif" font-size="14.00">25</text>
</g>
<!-- 7&#45;&gt;25 -->
<g id="edge4" class="edge">
<title>7&#45;&gt;25</title>
<path fill="none" stroke="black" d="M135,-1420.65C135,-1408.96 135,-1393.19 135,-1379.62"/>
<polygon fill="black" stroke="black" points="138.5,-1379.92 135,-1369.92 131.5,-1379.92 138.5,-1379.92"/>
<text xml:space="preserve" text-anchor="middle" x="142" y="-1390.2" font-family="Times,serif" font-size="14.00">35</text>
</g>
<!-- 17 -->
<g id="node6" class="node">
<title>17</title>
<ellipse fill="none" stroke="black" cx="135" cy="-1261.2" rx="27" ry="18"/>
<text xml:space="preserve" text-anchor="middle" x="135" y="-1257" font-family="Times,serif" font-size="14.00">17</text>
</g>
<!-- 25&#45;&gt;17 -->
<g id="edge5" class="edge">
<title>25&#45;&gt;17</title>
<path fill="none" stroke="black" d="M135,-1331.85C135,-1320.16 135,-1304.39 135,-1290.82"/>
<polygon fill="black" stroke="black" points="138.5,-1291.12 135,-1281.12 131.5,-1291.12 138.5,-1291.12"/>
<text xml:space="preserve" text-anchor="middle" x="142" y="-1301.4" font-family="Times,serif" font-size="14.00">87</text>
</g>
<!-- 21 -->
<g id="node7" class="node">
<title>21</title>
<ellipse fill="none" stroke="black" cx="135" cy="-1172.4" rx="27" ry="18"/>
<text xml:space="preserve" text-anchor="middle" x="135" y="-1168.2" font-family="Times,serif" font-size="14.00">21</text>
</g>
<!-- 17&#45;&gt;21 -->
<g id="edge6" class="edge">
<title>17&#45;&gt;21</title>
<path fill="none" stroke="black" d="M135,-1243.05C135,-1231.36 135,-1215.59 135,-1202.02"/>
<polygon fill="black" stroke="black" points="138.5,-1202.32 135,-1192.32 131.5,-1202.32 138.5,-1202.32"/>
<text xml:space="preserve" text-anchor="middle" x="145.5" y="-1212.6" font-family="Times,serif" font-size="14.00">239</text>
</g>
<!-- 24 -->
<g id="node8" class="node">
<title>24</title>
<ellipse fill="none" stroke="black" cx="135" cy="-1083.6" rx="27" ry="18"/>
<text xml:space="preserve" text-anchor="middle" x="135" y="-1079.4" font-family="Times,serif" font-size="14.00">24</text>
</g>
<!-- 21&#45;&gt;24 -->
<g id="edge7" class="edge">
<title>21&#45;&gt;24</title>
<path fill="none" stroke="black" d="M135,-1154.25C135,-1142.56 135,-1126.79 135,-1113.22"/>
<polygon fill="black" stroke="black" points="138.5,-1113.52 135,-1103.52 131.5,-1113.52 138.5,-1113.52"/>
<text xml:space="preserve" text-anchor="middle" x="145.5" y="-1123.8" font-family="Times,serif" font-size="14.00">648</text>
</g>
<!-- 18 -->
<g id="node9" class="node">
<title>18</title>
<ellipse fill="none" stroke="black" cx="99" cy="-994.8" rx="27" ry="18"/>
<text xml:space="preserve" text-anchor="middle" x="99" y="-990.6" font-family="Times,serif" font-size="14.00">18</text>
</g>
<!-- 24&#45;&gt;18 -->
<g id="edge8" class="edge">
<title>24&#45;&gt;18</title>
<path fill="none" stroke="black" d="M128.06,-1065.86C123.03,-1053.74 116.12,-1037.07 110.3,-1023.04"/>
<polygon fill="black" stroke="black" points="113.56,-1021.78 106.5,-1013.88 107.1,-1024.46 113.56,-1021.78"/>
<text xml:space="preserve" text-anchor="middle" x="130.72" y="-1035" font-family="Times,serif" font-size="14.00">285</text>
</g>
<!-- 4 -->
<g id="node23" class="node">
<title>4</title>
<ellipse fill="none" stroke="black" cx="171" cy="-994.8" rx="27" ry="18"/>
<text xml:space="preserve" text-anchor="middle" x="171" y="-990.6" font-family="Times,serif" font-size="14.00">4</text>
</g>
<!-- 24&#45;&gt;4 -->
<g id="edge22" class="edge">
<title>24&#45;&gt;4</title>
<path fill="none" stroke="black" d="M141.94,-1065.86C146.97,-1053.74 153.88,-1037.07 159.7,-1023.04"/>
<polygon fill="black" stroke="black" points="162.9,-1024.46 163.5,-1013.88 156.44,-1021.78 162.9,-1024.46"/>
<text xml:space="preserve" text-anchor="middle" x="166.72" y="-1035" font-family="Times,serif" font-size="14.00">288</text>
</g>
<!-- 19 -->
<g id="node10" class="node">
<title>19</title>
<ellipse fill="none" stroke="black" cx="99" cy="-906" rx="27" ry="18"/>
<text xml:space="preserve" text-anchor="middle" x="99" y="-901.8" font-family="Times,serif" font-size="14.00">19</text>
</g>
<!-- 18&#45;&gt;19 -->
<g id="edge9" class="edge">
<title>18&#45;&gt;19</title>
<path fill="none" stroke="black" d="M99,-976.65C99,-964.96 99,-949.19 99,-935.62"/>
<polygon fill="black" stroke="black" points="102.5,-935.92 99,-925.92 95.5,-935.92 102.5,-935.92"/>
<text xml:space="preserve" text-anchor="middle" x="109.5" y="-946.2" font-family="Times,serif" font-size="14.00">642</text>
</g>
<!-- 12 -->
<g id="node11" class="node">
<title>12</title>
<ellipse fill="none" stroke="black" cx="99" cy="-817.2" rx="27" ry="18"/>
<text xml:space="preserve" text-anchor="middle" x="99" y="-813" font-family="Times,serif" font-size="14.00">12</text>
</g>
<!-- 19&#45;&gt;12 -->
<g id="edge10" class="edge">
<title>19&#45;&gt;12</title>
<path fill="none" stroke="black" d="M99,-887.85C99,-876.16 99,-860.39 99,-846.82"/>
<polygon fill="black" stroke="black" points="102.5,-847.12 99,-837.12 95.5,-847.12 102.5,-847.12"/>
<text xml:space="preserve" text-anchor="middle" x="109.5" y="-857.4" font-family="Times,serif" font-size="14.00">724</text>
</g>
<!-- 2 -->
<g id="node12" class="node">
<title>2</title>
<ellipse fill="none" stroke="black" cx="99" cy="-728.4" rx="27" ry="18"/>
<text xml:space="preserve" text-anchor="middle" x="99" y="-724.2" font-family="Times,serif" font-size="14.00">2</text>
</g>
<!-- 12&#45;&gt;2 -->
<g id="edge11" class="edge">
<title>12&#45;&gt;2</title>
<path fill="none" stroke="black" d="M99,-799.05C99,-787.36 99,-771.59 99,-758.02"/>
<polygon fill="black" stroke="black" points="102.5,-758.32 99,-748.32 95.5,-758.32 102.5,-758.32"/>
<text xml:space="preserve" text-anchor="middle" x="109.5" y="-768.6" font-family="Times,serif" font-size="14.00">600</text>
</g>
<!-- 10 -->
<g id="node13" class="node">
<title>10</title>
<ellipse fill="none" stroke="black" cx="99" cy="-639.6" rx="27" ry="18"/>
<text xml:space="preserve" text-anchor="middle" x="99" y="-635.4" font-family="Times,serif" font-size="14.00">10</text>
</g>
<!-- 2&#45;&gt;10 -->
<g id="edge12" class="edge">
<title>2&#45;&gt;10</title>
<path fill="none" stroke="black" d="M99,-710.25C99,-698.56 99,-682.79 99,-669.22"/>
<polygon fill="black" stroke="black" points="102.5,-669.52 99,-659.52 95.5,-669.52 102.5,-669.52"/>
<text xml:space="preserve" text-anchor="middle" x="109.5" y="-679.8" font-family="Times,serif" font-size="14.00">932</text>
</g>
<!-- 13 -->
<g id="node14" class="node">
<title>13</title>
<ellipse fill="none" stroke="black" cx="27" cy="-550.8" rx="27" ry="18"/>
<text xml:space="preserve" text-anchor="middle" x="27" y="-546.6" font-family="Times,serif" font-size="14.00">13</text>
</g>
<!-- 10&#45;&gt;13 -->
<g id="edge13" class="edge">
<title>10&#45;&gt;13</title>
<path fill="none" stroke="black" d="M86.46,-623.48C75.48,-610.24 59.34,-590.79 46.65,-575.49"/>
<polygon fill="black" stroke="black" points="49.68,-573.66 40.61,-568.2 44.3,-578.13 49.68,-573.66"/>
<text xml:space="preserve" text-anchor="middle" x="79.95" y="-591" font-family="Times,serif" font-size="14.00">370</text>
</g>
<!-- 15 -->
<g id="node21" class="node">
<title>15</title>
<ellipse fill="none" stroke="black" cx="99" cy="-550.8" rx="27" ry="18"/>
<text xml:space="preserve" text-anchor="middle" x="99" y="-546.6" font-family="Times,serif" font-size="14.00">15</text>
</g>
<!-- 10&#45;&gt;15 -->
<g id="edge20" class="edge">
<title>10&#45;&gt;15</title>
<path fill="none" stroke="black" d="M99,-621.45C99,-609.76 99,-593.99 99,-580.42"/>
<polygon fill="black" stroke="black" points="102.5,-580.72 99,-570.72 95.5,-580.72 102.5,-580.72"/>
<text xml:space="preserve" text-anchor="middle" x="109.5" y="-591" font-family="Times,serif" font-size="14.00">431</text>
</g>
<!-- 3 -->
<g id="node22" class="node">
<title>3</title>
<ellipse fill="none" stroke="black" cx="171" cy="-550.8" rx="27" ry="18"/>
<text xml:space="preserve" text-anchor="middle" x="171" y="-546.6" font-family="Times,serif" font-size="14.00">3</text>
</g>
<!-- 10&#45;&gt;3 -->
<g id="edge21" class="edge">
<title>10&#45;&gt;3</title>
<path fill="none" stroke="black" d="M111.54,-623.48C122.52,-610.24 138.66,-590.79 151.35,-575.49"/>
<polygon fill="black" stroke="black" points="153.7,-578.13 157.39,-568.2 148.32,-573.66 153.7,-578.13"/>
<text xml:space="preserve" text-anchor="middle" x="151.95" y="-591" font-family="Times,serif" font-size="14.00">672</text>
</g>
<!-- 14 -->
<g id="node15" class="node">
<title>14</title>
<ellipse fill="none" stroke="black" cx="27" cy="-462" rx="27" ry="18"/>
<text xml:space="preserve" text-anchor="middle" x="27" y="-457.8" font-family="Times,serif" font-size="14.00">14</text>
</g>
<!-- 13&#45;&gt;14 -->
<g id="edge14" class="edge">
<title>13&#45;&gt;14</title>
<path fill="none" stroke="black" d="M27,-532.65C27,-520.96 27,-505.19 27,-491.62"/>
<polygon fill="black" stroke="black" points="30.5,-491.92 27,-481.92 23.5,-491.92 30.5,-491.92"/>
<text xml:space="preserve" text-anchor="middle" x="37.5" y="-502.2" font-family="Times,serif" font-size="14.00">889</text>
</g>
<!-- 5 -->
<g id="node16" class="node">
<title>5</title>
<ellipse fill="none" stroke="black" cx="27" cy="-373.2" rx="27" ry="18"/>
<text xml:space="preserve" text-anchor="middle" x="27" y="-369" font-family="Times,serif" font-size="14.00">5</text>
</g>
<!-- 14&#45;&gt;5 -->
<g id="edge15" class="edge">
<title>14&#45;&gt;5</title>
<path fill="none" stroke="black" d="M27,-443.85C27,-432.16 27,-416.39 27,-402.82"/>
<polygon fill="black" stroke="black" points="30.5,-403.12 27,-393.12 23.5,-403.12 30.5,-403.12"/>
<text xml:space="preserve" text-anchor="middle" x="37.5" y="-413.4" font-family="Times,serif" font-size="14.00">866</text>
</g>
<!-- 11 -->
<g id="node17" class="node">
<title>11</title>
<ellipse fill="none" stroke="black" cx="27" cy="-284.4" rx="27" ry="18"/>
<text xml:space="preserve" text-anchor="middle" x="27" y="-280.2" font-family="Times,serif" font-size="14.00">11</text>
</g>
<!-- 5&#45;&gt;11 -->
<g id="edge16" class="edge">
<title>5&#45;&gt;11</title>
<path fill="none" stroke="black" d="M27,-355.05C27,-343.36 27,-327.59 27,-314.02"/>
<polygon fill="black" stroke="black" points="30.5,-314.32 27,-304.32 23.5,-314.32 30.5,-314.32"/>
<text xml:space="preserve" text-anchor="middle" x="37.5" y="-324.6" font-family="Times,serif" font-size="14.00">788</text>
</g>
<!-- 8 -->
<g id="node18" class="node">
<title>8</title>
<ellipse fill="none" stroke="black" cx="27" cy="-195.6" rx="27" ry="18"/>
<text xml:space="preserve" text-anchor="middle" x="27" y="-191.4" font-family="Times,serif" font-size="14.00">8</text>
</g>
<!-- 11&#45;&gt;8 -->
<g id="edge17" class="edge">
<title>11&#45;&gt;8</title>
<path fill="none" stroke="black" d="M27,-266.25C27,-254.56 27,-238.79 27,-225.22"/>
<polygon fill="black" stroke="black" points="30.5,-225.52 27,-215.52 23.5,-225.52 30.5,-225.52"/>
<text xml:space="preserve" text-anchor="middle" x="37.5" y="-235.8" font-family="Times,serif" font-size="14.00">855</text>
</g>
<!-- 22 -->
<g id="node19" class="node">
<title>22</title>
<ellipse fill="none" stroke="black" cx="27" cy="-106.8" rx="27" ry="18"/>
<text xml:space="preserve" text-anchor="middle" x="27" y="-102.6" font-family="Times,serif" font-size="14.00">22</text>
</g>
<!-- 8&#45;&gt;22 -->
<g id="edge18" class="edge">
<title>8&#45;&gt;22</title>
<path fill="none" stroke="black" d="M27,-177.45C27,-165.76 27,-149.99 27,-136.42"/>
<polygon fill="black" stroke="black" points="30.5,-136.72 27,-126.72 23.5,-136.72 30.5,-136.72"/>
<text xml:space="preserve" text-anchor="middle" x="37.5" y="-147" font-family="Times,serif" font-size="14.00">663</text>
</g>
<!-- 23 -->
<g id="node20" class="node">
<title>23</title>
<ellipse fill="none" stroke="black" cx="27" cy="-18" rx="27" ry="18"/>
<text xml:space="preserve" text-anchor="middle" x="27" y="-13.8" font-family="Times,serif" font-size="14.00">23</text>
</g>
<!-- 22&#45;&gt;23 -->
<g id="edge19" class="edge">
<title>22&#45;&gt;23</title>
<path fill="none" stroke="black" d="M27,-88.65C27,-76.96 27,-61.19 27,-47.62"/>
<polygon fill="black" stroke="black" points="30.5,-47.92 27,-37.92 23.5,-47.92 30.5,-47.92"/>
<text xml:space="preserve" text-anchor="middle" x="37.5" y="-58.2" font-family="Times,serif" font-size="14.00">429</text>
</g>
<!-- 20 -->
<g id="node24" class="node">
<title>20</title>
<ellipse fill="none" stroke="black" cx="171" cy="-906" rx="27" ry="18"/>
<text xml:space="preserve" text-anchor="middle" x="171" y="-901.8" font-family="Times,serif" font-size="14.00">20</text>
</g>
<!-- 4&#45;&gt;20 -->
<g id="edge23" class="edge">
<title>4&#45;&gt;20</title>
<path fill="none" stroke="black" d="M171,-976.65C171,-964.96 171,-949.19 171,-935.62"/>
<polygon fill="black" stroke="black" points="174.5,-935.92 171,-925.92 167.5,-935.92 174.5,-935.92"/>
<text xml:space="preserve" text-anchor="middle" x="181.5" y="-946.2" font-family="Times,serif" font-size="14.00">768</text>
</g>
<!-- 9 -->
<g id="node25" class="node">
<title>9</title>
<ellipse fill="none" stroke="black" cx="171" cy="-817.2" rx="27" ry="18"/>
<text xml:space="preserve" text-anchor="middle" x="171" y="-813" font-family="Times,serif" font-size="14.00">9</text>
</g>
<!-- 20&#45;&gt;9 -->
<g id="edge24" class="edge">
<title>20&#45;&gt;9</title>
<path fill="none" stroke="black" d="M171,-887.85C171,-876.16 171,-860.39 171,-846.82"/>
<polygon fill="black" stroke="black" points="174.5,-847.12 171,-837.12 167.5,-847.12 174.5,-847.12"/>
<text xml:space="preserve" text-anchor="middle" x="181.5" y="-857.4" font-family="Times,serif" font-size="14.00">767</text>
</g>
</g>
</svg>
