<?xml version="1.0" encoding="UTF-8" standalone="no"?>
<!DOCTYPE svg PUBLIC "-//W3C//DTD SVG 1.1//EN"
 "http://www.w3.org/Graphics/SVG/1.1/DTD/svg11.dtd">
<!-- Generated by graphviz version 14.1.1 (20251213.1925)
 -->
<!-- Title: G Pages: 1 -->
<svg width="1083pt" height="488pt"
 viewBox="0.00 0.00 1083.00 488.00" xmlns="http://www.w3.org/2000/svg" xmlns:xlink="http://www.w3.org/1999/xlink">
<g id="graph0" class="graph" transform="scale(1 1) rotate(0) translate(4 484)">
<title>G</title>
<polygon fill="white" stroke="none" points="-4,4 -4,-484 1079,-484 1079,4 -4,4"/>
<!-- 1 -->
<g id="node1" class="node">
<title>1</title>
<ellipse fill="none" stroke="black" cx="350" cy="-373.2" rx="27" ry="18"/>
<text xml:space="preserve" text-anchor="middle" x="350" y="-369" font-family="Times,serif" font-size="14.00">1</text>
</g>
<!-- 6 -->
<g id="node2" class="node">
<title>6</title>
<ellipse fill="none" stroke="black" cx="305" cy="-284.4" rx="27" ry="18"/>
<text xml:space="preserve" text-anchor="middle" x="305" y="-280.2" font-family="Times,serif" font-size="14.00">6</text>
</g>
<!-- 1&#45;&#45;6 -->
<g id="edge1" class="edge">
<title>1&#45;&#45;6</title>
<path fill="none" stroke="black" d="M341.54,-355.87C333.54,-340.45 321.61,-317.44 313.58,-301.95"/>
<text xml:space="preserve" text-anchor="middle" x="342.03" y="-324.6" font-family="Times,serif" font-size="14.00">872</text>
</g>
<!-- 20 -->
<g id="node3" class="node">
<title>20</title>
<ellipse fill="none" stroke="black" cx="136" cy="-195.6" rx="27" ry="18"/>
<text xml:space="preserve" text-anchor="middle" x="136" y="-191.4" font-family="Times,serif" font-size="14.00">20</text>
</g>
<!-- 1&#45;&#45;20 -->
<g id="edge2" class="edge">
<title>1&#45;&#45;20</title>
<path fill="none" stroke="black" d="M326.93,-363.19C310.52,-356.54 288.08,-346.99 269,-337.2 256.09,-330.57 254.6,-325.47 241,-320.4 197.45,-304.17 168.23,-337.69 138,-302.4 116.85,-277.71 123.99,-236.58 130.41,-213.55"/>
<text xml:space="preserve" text-anchor="middle" x="148.5" y="-280.2" font-family="Times,serif" font-size="14.00">124</text>
</g>
<!-- 12 -->
<g id="node4" class="node">
<title>12</title>
<ellipse fill="none" stroke="black" cx="434" cy="-284.4" rx="27" ry="18"/>
<text xml:space="preserve" text-anchor="middle" x="434" y="-280.2" font-family="Times,serif" font-size="14.00">12</text>
</g>
<!-- 1&#45;&#45;12 -->
<g id="edge3" class="edge">
<title>1&#45;&#45;12</title>
<path fill="none" stroke="black" d="M364.25,-357.48C379.79,-341.42 404.5,-315.88 419.96,-299.91"/>
<text xml:space="preserve" text-anchor="middle" x="410.02" y="-324.6" font-family="Times,serif" font-size="14.00">133</text>
</g>
<!-- 14 -->
<g id="node5" class="node">
<title>14</title>
<ellipse fill="none" stroke="black" cx="560" cy="-195.6" rx="27" ry="18"/>
<text xml:space="preserve" text-anchor="middle" x="560" y="-191.4" font-family="Times,serif" font-size="14.00">14</text>
</g>
<!-- 1&#45;&#45;14 -->
<g id="edge4" class="edge">
<title>1&#45;&#45;14</title>
<path fill="none" stroke="black" d="M352.22,-355.16C356.02,-328.52 364.59,-278.79 377,-266.4 400.04,-243.4 417.94,-260.91 448,-248.4 461.4,-242.82 463.05,-238.14 476,-231.6 496.03,-221.49 519.68,-211.83 536.78,-205.22"/>
<text xml:space="preserve" text-anchor="middle" x="387.5" y="-280.2" font-family="Times,serif" font-size="14.00">425</text>
</g>
<!-- 4 -->
<g id="node6" class="node">
<title>4</title>
<ellipse fill="none" stroke="black" cx="195" cy="-284.4" rx="27" ry="18"/>
<text xml:space="preserve" text-anchor="middle" x="195" y="-280.2" font-family="Times,serif" font-size="14.00">4</text>
</g>
<!-- 1&#45;&#45;4 -->
<g id="edge5" class="edge">
<title>1&#45;&#45;4</title>
<path fill="none" stroke="black" d="M331.29,-359.95C314.46,-349.11 288.94,-333.09 266,-320.4 249.77,-311.42 230.91,-302.18 216.71,-295.45"/>
<text xml:space="preserve" text-anchor="middle" x="304.65" y="-324.6" font-family="Times,serif" font-size="14.00">995</text>
</g>
<!-- 17 -->
<g id="node7" class="node">
<title>17</title>
<ellipse fill="none" stroke="black" cx="506" cy="-284.4" rx="27" ry="18"/>
<text xml:space="preserve" text-anchor="middle" x="506" y="-280.2" font-family="Times,serif" font-size="14.00">17</text>
</g>
<!-- 1&#45;&#45;17 -->
<g id="edge6" class="edge">
<title>1&#45;&#45;17</title>
<path fill="none" stroke="black" d="M372.37,-362.69C387.48,-356.04 407.75,-346.69 425,-337.2 447.23,-324.97 471.62,-309 487.76,-298.05"/>
<text xml:space="preserve" text-anchor="middle" x="462.83" y="-324.6" font-family="Times,serif" font-size="14.00">756</text>
</g>
<!-- 21 -->
<g id="node10" class="node">
<title>21</title>
<ellipse fill="none" stroke="black" cx="274" cy="-195.6" rx="27" ry="18"/>
<text xml:space="preserve" text-anchor="middle" x="274" y="-191.4" font-family="Times,serif" font-size="14.00">21</text>
</g>
<!-- 6&#45;&#45;21 -->
<g id="edge19" class="edge">
<title>6&#45;&#45;21</title>
<path fill="none" stroke="black" d="M290.17,-269.03C285.06,-263.15 279.9,-255.96 277,-248.4 272.81,-237.47 272.1,-224.28 272.42,-213.95"/>
<text xml:space="preserve" text-anchor="middle" x="284" y="-235.8" font-family="Times,serif" font-size="14.00">52</text>
</g>
<!-- 22 -->
<g id="node15" class="node">
<title>22</title>
<ellipse fill="none" stroke="black" cx="758" cy="-106.8" rx="27" ry="18"/>
<text xml:space="preserve" text-anchor="middle" x="758" y="-102.6" font-family="Times,serif" font-size="14.00">22</text>
</g>
<!-- 6&#45;&#45;22 -->
<g id="edge20" class="edge">
<title>6&#45;&#45;22</title>
<path fill="none" stroke="black" d="M306.38,-266.11C307.99,-255.28 311.47,-241.56 319,-231.6 347.13,-194.38 365.26,-193.82 409,-177.6 539.22,-129.31 583.58,-163.37 717,-124.8 723.37,-122.96 730.08,-120.44 736.19,-117.9"/>
<text xml:space="preserve" text-anchor="middle" x="419.5" y="-191.4" font-family="Times,serif" font-size="14.00">229</text>
</g>
<!-- 16 -->
<g id="node16" class="node">
<title>16</title>
<ellipse fill="none" stroke="black" cx="466" cy="-195.6" rx="27" ry="18"/>
<text xml:space="preserve" text-anchor="middle" x="466" y="-191.4" font-family="Times,serif" font-size="14.00">16</text>
</g>
<!-- 6&#45;&#45;16 -->
<g id="edge18" class="edge">
<title>6&#45;&#45;16</title>
<path fill="none" stroke="black" d="M324.54,-271.39C335.14,-264.77 348.41,-256.31 360,-248.4 370.46,-241.26 371.98,-237.83 383,-231.6 402.19,-220.74 425.42,-211.23 442.42,-204.87"/>
<text xml:space="preserve" text-anchor="middle" x="393.5" y="-235.8" font-family="Times,serif" font-size="14.00">482</text>
</g>
<!-- 19 -->
<g id="node24" class="node">
<title>19</title>
<ellipse fill="none" stroke="black" cx="689" cy="-195.6" rx="27" ry="18"/>
<text xml:space="preserve" text-anchor="middle" x="689" y="-191.4" font-family="Times,serif" font-size="14.00">19</text>
</g>
<!-- 12&#45;&#45;19 -->
<g id="edge34" class="edge">
<title>12&#45;&#45;19</title>
<path fill="none" stroke="black" d="M449.62,-269.55C466.17,-255 490.65,-233.9 496,-231.6 558.47,-204.67 582.18,-230.79 648,-213.6 654.41,-211.93 661.14,-209.46 667.25,-206.92"/>
<text xml:space="preserve" text-anchor="middle" x="506.5" y="-235.8" font-family="Times,serif" font-size="14.00">724</text>
</g>
<!-- 4&#45;&#45;20 -->
<g id="edge14" class="edge">
<title>4&#45;&#45;20</title>
<path fill="none" stroke="black" d="M182.27,-268.41C177.31,-262.34 171.71,-255.17 167,-248.4 158.99,-236.87 150.87,-223.21 144.95,-212.82"/>
<text xml:space="preserve" text-anchor="middle" x="177.5" y="-235.8" font-family="Times,serif" font-size="14.00">768</text>
</g>
<!-- 24 -->
<g id="node11" class="node">
<title>24</title>
<ellipse fill="none" stroke="black" cx="225" cy="-106.8" rx="27" ry="18"/>
<text xml:space="preserve" text-anchor="middle" x="225" y="-102.6" font-family="Times,serif" font-size="14.00">24</text>
</g>
<!-- 4&#45;&#45;24 -->
<g id="edge13" class="edge">
<title>4&#45;&#45;24</title>
<path fill="none" stroke="black" d="M197.93,-266.24C203.67,-232.67 216.31,-158.65 222.06,-125.03"/>
<text xml:space="preserve" text-anchor="middle" x="223.48" y="-191.4" font-family="Times,serif" font-size="14.00">288</text>
</g>
<!-- 17&#45;&#45;20 -->
<g id="edge38" class="edge">
<title>17&#45;&#45;20</title>
<path fill="none" stroke="black" d="M485.49,-272.39C480.53,-270.1 475.17,-267.93 470,-266.4 411.94,-249.27 393.42,-264.26 335,-248.4 316.39,-243.35 313.55,-236.86 295,-231.6 245.23,-217.48 229.97,-227 180,-213.6 172.72,-211.65 164.99,-208.9 158.08,-206.19"/>
<text xml:space="preserve" text-anchor="middle" x="345.5" y="-235.8" font-family="Times,serif" font-size="14.00">397</text>
</g>
<!-- 17&#45;&#45;21 -->
<g id="edge36" class="edge">
<title>17&#45;&#45;21</title>
<path fill="none" stroke="black" d="M486.24,-271.81C466.09,-260.37 433.67,-242.99 404,-231.6 368.65,-218.03 325.98,-207.62 299.41,-201.8"/>
<text xml:space="preserve" text-anchor="middle" x="451.88" y="-235.8" font-family="Times,serif" font-size="14.00">239</text>
</g>
<!-- 25 -->
<g id="node18" class="node">
<title>25</title>
<ellipse fill="none" stroke="black" cx="813" cy="-195.6" rx="27" ry="18"/>
<text xml:space="preserve" text-anchor="middle" x="813" y="-191.4" font-family="Times,serif" font-size="14.00">25</text>
</g>
<!-- 17&#45;&#45;25 -->
<g id="edge37" class="edge">
<title>17&#45;&#45;25</title>
<path fill="none" stroke="black" d="M514.65,-267.38C522.07,-255.35 533.94,-239.63 549,-231.6 583.69,-213.1 686.11,-219.33 725,-213.6 746.09,-210.49 769.81,-205.84 787.3,-202.19"/>
<text xml:space="preserve" text-anchor="middle" x="556" y="-235.8" font-family="Times,serif" font-size="14.00">87</text>
</g>
<!-- 2 -->
<g id="node8" class="node">
<title>2</title>
<ellipse fill="none" stroke="black" cx="328" cy="-462" rx="27" ry="18"/>
<text xml:space="preserve" text-anchor="middle" x="328" y="-457.8" font-family="Times,serif" font-size="14.00">2</text>
</g>
<!-- 2&#45;&#45;12 -->
<g id="edge8" class="edge">
<title>2&#45;&#45;12</title>
<path fill="none" stroke="black" d="M343.07,-446.6C364.63,-425.02 403.79,-382.02 423,-337.2 427.71,-326.22 430.47,-313.03 432.05,-302.71"/>
<text xml:space="preserve" text-anchor="middle" x="424.2" y="-369" font-family="Times,serif" font-size="14.00">600</text>
</g>
<!-- 10 -->
<g id="node9" class="node">
<title>10</title>
<ellipse fill="none" stroke="black" cx="583" cy="-373.2" rx="27" ry="18"/>
<text xml:space="preserve" text-anchor="middle" x="583" y="-369" font-family="Times,serif" font-size="14.00">10</text>
</g>
<!-- 2&#45;&#45;10 -->
<g id="edge7" class="edge">
<title>2&#45;&#45;10</title>
<path fill="none" stroke="black" d="M353.19,-454.6C378.21,-448.06 417.55,-437.29 451,-426 490.19,-412.77 534.79,-394.6 560.82,-383.66"/>
<text xml:space="preserve" text-anchor="middle" x="505.49" y="-413.4" font-family="Times,serif" font-size="14.00">932</text>
</g>
<!-- 2&#45;&#45;21 -->
<g id="edge9" class="edge">
<title>2&#45;&#45;21</title>
<path fill="none" stroke="black" d="M313.32,-446.67C292.48,-425.17 255.26,-382.28 241,-337.2 227.01,-292.97 250.48,-239.24 264.57,-212.84"/>
<text xml:space="preserve" text-anchor="middle" x="251.5" y="-324.6" font-family="Times,serif" font-size="14.00">276</text>
</g>
<!-- 2&#45;&#45;24 -->
<g id="edge10" class="edge">
<title>2&#45;&#45;24</title>
<path fill="none" stroke="black" d="M300.88,-459.64C222.29,-454.97 0,-436.27 0,-374.2 0,-374.2 0,-374.2 0,-194.6 0,-152.42 139.4,-122.86 198.75,-112.19"/>
<text xml:space="preserve" text-anchor="middle" x="10.5" y="-280.2" font-family="Times,serif" font-size="14.00">642</text>
</g>
<!-- 10&#45;&#45;17 -->
<g id="edge33" class="edge">
<title>10&#45;&#45;17</title>
<path fill="none" stroke="black" d="M569.59,-357.08C555.45,-341.15 533.33,-316.21 519.26,-300.35"/>
<text xml:space="preserve" text-anchor="middle" x="561.9" y="-324.6" font-family="Times,serif" font-size="14.00">204</text>
</g>
<!-- 10&#45;&#45;22 -->
<g id="edge32" class="edge">
<title>10&#45;&#45;22</title>
<path fill="none" stroke="black" d="M593.55,-356.18C597.47,-350.23 601.94,-343.41 606,-337.2 626.53,-305.79 621.09,-287.68 652,-266.4 683.45,-244.75 709.77,-276.14 736,-248.4 767.91,-214.65 764.82,-154.64 760.92,-125.15"/>
<text xml:space="preserve" text-anchor="middle" x="758.39" y="-235.8" font-family="Times,serif" font-size="14.00">474</text>
</g>
<!-- 15 -->
<g id="node20" class="node">
<title>15</title>
<ellipse fill="none" stroke="black" cx="688" cy="-284.4" rx="27" ry="18"/>
<text xml:space="preserve" text-anchor="middle" x="688" y="-280.2" font-family="Times,serif" font-size="14.00">15</text>
</g>
<!-- 10&#45;&#45;15 -->
<g id="edge31" class="edge">
<title>10&#45;&#45;15</title>
<path fill="none" stroke="black" d="M604.24,-361.68C615.95,-355.38 630.43,-346.75 642,-337.2 654.99,-326.48 667.53,-311.99 676.22,-301.07"/>
<text xml:space="preserve" text-anchor="middle" x="669.05" y="-324.6" font-family="Times,serif" font-size="14.00">431</text>
</g>
<!-- 13 -->
<g id="node23" class="node">
<title>13</title>
<ellipse fill="none" stroke="black" cx="578" cy="-284.4" rx="27" ry="18"/>
<text xml:space="preserve" text-anchor="middle" x="578" y="-280.2" font-family="Times,serif" font-size="14.00">13</text>
</g>
<!-- 10&#45;&#45;13 -->
<g id="edge30" class="edge">
<title>10&#45;&#45;13</title>
<path fill="none" stroke="black" d="M582.01,-355.05C581.14,-339.93 579.88,-318.01 579,-302.81"/>
<text xml:space="preserve" text-anchor="middle" x="591.45" y="-324.6" font-family="Times,serif" font-size="14.00">370</text>
</g>
<!-- 21&#45;&#45;24 -->
<g id="edge44" class="edge">
<title>21&#45;&#45;24</title>
<path fill="none" stroke="black" d="M264.78,-178.27C256.02,-162.76 242.92,-139.55 234.18,-124.05"/>
<text xml:space="preserve" text-anchor="middle" x="264.39" y="-147" font-family="Times,serif" font-size="14.00">648</text>
</g>
<!-- 3 -->
<g id="node12" class="node">
<title>3</title>
<ellipse fill="none" stroke="black" cx="545" cy="-462" rx="27" ry="18"/>
<text xml:space="preserve" text-anchor="middle" x="545" y="-457.8" font-family="Times,serif" font-size="14.00">3</text>
</g>
<!-- 3&#45;&#45;17 -->
<g id="edge11" class="edge">
<title>3&#45;&#45;17</title>
<path fill="none" stroke="black" d="M531.65,-445.98C527.19,-440.13 522.68,-433.13 520,-426 504.11,-383.75 503.83,-329.6 504.93,-302.48"/>
<text xml:space="preserve" text-anchor="middle" x="520.95" y="-369" font-family="Times,serif" font-size="14.00">362</text>
</g>
<!-- 3&#45;&#45;10 -->
<g id="edge12" class="edge">
<title>3&#45;&#45;10</title>
<path fill="none" stroke="black" d="M552.74,-444.31C555.4,-438.52 558.36,-431.99 561,-426 566.12,-414.38 571.72,-401.2 575.98,-391.05"/>
<text xml:space="preserve" text-anchor="middle" x="578.28" y="-413.4" font-family="Times,serif" font-size="14.00">672</text>
</g>
<!-- 5 -->
<g id="node13" class="node">
<title>5</title>
<ellipse fill="none" stroke="black" cx="908" cy="-284.4" rx="27" ry="18"/>
<text xml:space="preserve" text-anchor="middle" x="908" y="-280.2" font-family="Times,serif" font-size="14.00">5</text>
</g>
<!-- 5&#45;&#45;14 -->
<g id="edge16" class="edge">
<title>5&#45;&#45;14</title>
<path fill="none" stroke="black" d="M882.76,-277.1C868.5,-273.67 850.32,-269.5 834,-266.4 781.45,-256.4 764.46,-268.76 715,-248.4 703.29,-243.58 703.59,-236.68 692,-231.6 654.24,-215.05 640.46,-225.55 601,-213.6 594.66,-211.68 587.95,-209.13 581.84,-206.59"/>
<text xml:space="preserve" text-anchor="middle" x="725.5" y="-235.8" font-family="Times,serif" font-size="14.00">866</text>
</g>
<!-- 11 -->
<g id="node14" class="node">
<title>11</title>
<ellipse fill="none" stroke="black" cx="942" cy="-195.6" rx="27" ry="18"/>
<text xml:space="preserve" text-anchor="middle" x="942" y="-191.4" font-family="Times,serif" font-size="14.00">11</text>
</g>
<!-- 5&#45;&#45;11 -->
<g id="edge15" class="edge">
<title>5&#45;&#45;11</title>
<path fill="none" stroke="black" d="M911.48,-266.24C913.84,-255.98 917.38,-242.79 922,-231.6 924.67,-225.13 928.31,-218.38 931.75,-212.54"/>
<text xml:space="preserve" text-anchor="middle" x="932.5" y="-235.8" font-family="Times,serif" font-size="14.00">788</text>
</g>
<!-- 5&#45;&#45;22 -->
<g id="edge17" class="edge">
<title>5&#45;&#45;22</title>
<path fill="none" stroke="black" d="M901.24,-266.69C891.8,-244.66 873.06,-205.45 849,-177.6 828.04,-153.34 797.45,-131.99 777.64,-119.48"/>
<text xml:space="preserve" text-anchor="middle" x="884.05" y="-191.4" font-family="Times,serif" font-size="14.00">610</text>
</g>
<!-- 23 -->
<g id="node25" class="node">
<title>23</title>
<ellipse fill="none" stroke="black" cx="705" cy="-18" rx="27" ry="18"/>
<text xml:space="preserve" text-anchor="middle" x="705" y="-13.8" font-family="Times,serif" font-size="14.00">23</text>
</g>
<!-- 22&#45;&#45;23 -->
<g id="edge45" class="edge">
<title>22&#45;&#45;23</title>
<path fill="none" stroke="black" d="M748.28,-89.88C738.78,-74.32 724.38,-50.74 714.84,-35.11"/>
<text xml:space="preserve" text-anchor="middle" x="746.75" y="-58.2" font-family="Times,serif" font-size="14.00">429</text>
</g>
<!-- 7 -->
<g id="node17" class="node">
<title>7</title>
<ellipse fill="none" stroke="black" cx="776" cy="-462" rx="27" ry="18"/>
<text xml:space="preserve" text-anchor="middle" x="776" y="-457.8" font-family="Times,serif" font-size="14.00">7</text>
</g>
<!-- 7&#45;&#45;10 -->
<g id="edge22" class="edge">
<title>7&#45;&#45;10</title>
<path fill="none" stroke="black" d="M750.62,-455C727.66,-449.1 693.23,-439.1 665,-426 641.48,-415.09 616.58,-398.56 600.48,-387.12"/>
<text xml:space="preserve" text-anchor="middle" x="675.5" y="-413.4" font-family="Times,serif" font-size="14.00">274</text>
</g>
<!-- 7&#45;&#45;22 -->
<g id="edge26" class="edge">
<title>7&#45;&#45;22</title>
<path fill="none" stroke="black" d="M802.91,-458.4C872.68,-450.93 1054,-426.47 1054,-374.2 1054,-374.2 1054,-374.2 1054,-194.6 1054,-138.84 858.12,-116.36 785.05,-109.91"/>
<text xml:space="preserve" text-anchor="middle" x="1064.5" y="-280.2" font-family="Times,serif" font-size="14.00">959</text>
</g>
<!-- 7&#45;&#45;16 -->
<g id="edge23" class="edge">
<title>7&#45;&#45;16</title>
<path fill="none" stroke="black" d="M773.85,-443.71C768.1,-400.58 751,-289.98 724,-266.4 700.04,-245.48 612.06,-258.81 582,-248.4 568.29,-243.65 567.01,-238.04 554,-231.6 532.78,-221.1 507.59,-211.34 489.61,-204.81"/>
<text xml:space="preserve" text-anchor="middle" x="764.37" y="-324.6" font-family="Times,serif" font-size="14.00">641</text>
</g>
<!-- 7&#45;&#45;25 -->
<g id="edge21" class="edge">
<title>7&#45;&#45;25</title>
<path fill="none" stroke="black" d="M786.4,-444.97C794.92,-431.2 806.71,-410.57 814,-391.2 828.25,-353.34 829.53,-342.61 834,-302.4 837.48,-271.11 840.62,-261.88 832,-231.6 830.11,-224.95 826.79,-218.16 823.46,-212.34"/>
<text xml:space="preserve" text-anchor="middle" x="838.93" y="-324.6" font-family="Times,serif" font-size="14.00">35</text>
</g>
<!-- 18 -->
<g id="node19" class="node">
<title>18</title>
<ellipse fill="none" stroke="black" cx="798" cy="-284.4" rx="27" ry="18"/>
<text xml:space="preserve" text-anchor="middle" x="798" y="-280.2" font-family="Times,serif" font-size="14.00">18</text>
</g>
<!-- 7&#45;&#45;18 -->
<g id="edge24" class="edge">
<title>7&#45;&#45;18</title>
<path fill="none" stroke="black" d="M778.15,-443.84C782.36,-410.27 791.63,-336.25 795.84,-302.63"/>
<text xml:space="preserve" text-anchor="middle" x="799.69" y="-369" font-family="Times,serif" font-size="14.00">272</text>
</g>
<!-- 7&#45;&#45;15 -->
<g id="edge25" class="edge">
<title>7&#45;&#45;15</title>
<path fill="none" stroke="black" d="M758.52,-448.15C750.79,-441.97 741.9,-434.14 735,-426 703.86,-389.3 693.14,-331.19 689.62,-302.54"/>
<text xml:space="preserve" text-anchor="middle" x="723.3" y="-369" font-family="Times,serif" font-size="14.00">898</text>
</g>
<!-- 18&#45;&#45;24 -->
<g id="edge40" class="edge">
<title>18&#45;&#45;24</title>
<path fill="none" stroke="black" d="M776.17,-273.38C770.06,-270.84 763.35,-268.3 757,-266.4 716.25,-254.19 700.31,-268.83 663,-248.4 625,-227.59 634.03,-198.35 596,-177.6 479.78,-114.19 315.98,-107.39 252.05,-107.34"/>
<text xml:space="preserve" text-anchor="middle" x="640.01" y="-191.4" font-family="Times,serif" font-size="14.00">285</text>
</g>
<!-- 18&#45;&#45;25 -->
<g id="edge41" class="edge">
<title>18&#45;&#45;25</title>
<path fill="none" stroke="black" d="M800.96,-266.25C803.59,-251.03 807.41,-228.92 810.04,-213.71"/>
<text xml:space="preserve" text-anchor="middle" x="817.34" y="-235.8" font-family="Times,serif" font-size="14.00">989</text>
</g>
<!-- 18&#45;&#45;19 -->
<g id="edge39" class="edge">
<title>18&#45;&#45;19</title>
<path fill="none" stroke="black" d="M776.15,-273.45C770.04,-270.92 763.33,-268.36 757,-266.4 719.69,-254.87 695.62,-278.71 671,-248.4 662.48,-237.91 668.95,-223.12 676.4,-212.03"/>
<text xml:space="preserve" text-anchor="middle" x="681.5" y="-235.8" font-family="Times,serif" font-size="14.00">642</text>
</g>
<!-- 8 -->
<g id="node21" class="node">
<title>8</title>
<ellipse fill="none" stroke="black" cx="986" cy="-284.4" rx="27" ry="18"/>
<text xml:space="preserve" text-anchor="middle" x="986" y="-280.2" font-family="Times,serif" font-size="14.00">8</text>
</g>
<!-- 8&#45;&#45;11 -->
<g id="edge27" class="edge">
<title>8&#45;&#45;11</title>
<path fill="none" stroke="black" d="M977.72,-267.07C969.91,-251.65 958.24,-228.64 950.39,-213.15"/>
<text xml:space="preserve" text-anchor="middle" x="978.44" y="-235.8" font-family="Times,serif" font-size="14.00">855</text>
</g>
<!-- 8&#45;&#45;22 -->
<g id="edge28" class="edge">
<title>8&#45;&#45;22</title>
<path fill="none" stroke="black" d="M990.53,-266.21C995.54,-242.9 1000.22,-201.46 978,-177.6 926.52,-122.33 831.57,-110.61 785.08,-108.27"/>
<text xml:space="preserve" text-anchor="middle" x="1003.98" y="-191.4" font-family="Times,serif" font-size="14.00">663</text>
</g>
<!-- 9 -->
<g id="node22" class="node">
<title>9</title>
<ellipse fill="none" stroke="black" cx="66" cy="-284.4" rx="27" ry="18"/>
<text xml:space="preserve" text-anchor="middle" x="66" y="-280.2" font-family="Times,serif" font-size="14.00">9</text>
</g>
<!-- 9&#45;&#45;20 -->
<g id="edge29" class="edge">
<title>9&#45;&#45;20</title>
<path fill="none" stroke="black" d="M73.11,-266.54C78.06,-255.9 85.32,-242.2 94,-231.6 100.85,-223.23 109.93,-215.37 117.89,-209.23"/>
<text xml:space="preserve" text-anchor="middle" x="104.5" y="-235.8" font-family="Times,serif" font-size="14.00">767</text>
</g>
<!-- 13&#45;&#45;14 -->
<g id="edge35" class="edge">
<title>13&#45;&#45;14</title>
<path fill="none" stroke="black" d="M574.44,-266.25C571.29,-251.03 566.7,-228.92 563.55,-213.71"/>
<text xml:space="preserve" text-anchor="middle" x="581.11" y="-235.8" font-family="Times,serif" font-size="14.00">889</text>
</g>
<!-- 19&#45;&#45;22 -->
<g id="edge43" class="edge">
<title>19&#45;&#45;22</title>
<path fill="none" stroke="black" d="M698.32,-178.6C704.75,-168.06 713.77,-154.15 723,-142.8 728.97,-135.47 736.27,-127.98 742.66,-121.81"/>
<text xml:space="preserve" text-anchor="middle" x="733.5" y="-147" font-family="Times,serif" font-size="14.00">393</text>
</g>
<!-- 19&#45;&#45;23 -->
<g id="edge42" class="edge">
<title>19&#45;&#45;23</title>
<path fill="none" stroke="black" d="M690.56,-177.44C693.62,-143.87 700.37,-69.85 703.43,-36.23"/>
<text xml:space="preserve" text-anchor="middle" x="705.59" y="-102.6" font-family="Times,serif" font-size="14.00">78</text>
</g>
</g>
</svg>
