<?xml version="1.0" encoding="UTF-8" standalone="no"?>
<!DOCTYPE svg PUBLIC "-//W3C//DTD SVG 1.1//EN"
 "http://www.w3.org/Graphics/SVG/1.1/DTD/svg11.dtd">
<!-- Generated by graphviz version 14.1.1 (20251213.1925)
 -->
<!-- Title: SPT Pages: 1 -->
<svg width="494pt" height="577pt"
 viewBox="0.00 0.00 494.00 577.00" xmlns="http://www.w3.org/2000/svg" xmlns:xlink="http://www.w3.org/1999/xlink">
<g id="graph0" class="graph" transform="scale(1 1) rotate(0) translate(4 572.8)">
<title>SPT</title>
<polygon fill="white" stroke="none" points="-4,4 -4,-572.8 490,-572.8 490,4 -4,4"/>
<!-- 12 -->
<g id="node1" class="node">
<title>12</title>
<ellipse fill="none" stroke="black" cx="99" cy="-462" rx="27" ry="18"/>
<text xml:space="preserve" text-anchor="middle" x="99" y="-457.8" font-family="Times,serif" font-size="14.00">12</text>
</g>
<!-- 2 -->
<g id="node2" class="node">
<title>2</title>
<ellipse fill="none" stroke="black" cx="27" cy="-373.2" rx="27" ry="18"/>
<text xml:space="preserve" text-anchor="middle" x="27" y="-369" font-family="Times,serif" font-size="14.00">2</text>
</g>
<!-- 12&#45;&gt;2 -->
<g id="edge1" class="edge">
<title>12&#45;&gt;2</title>
<path fill="none" stroke="black" d="M86.46,-445.88C75.48,-432.64 59.34,-413.19 46.65,-397.89"/>
<polygon fill="black" stroke="black" points="49.68,-396.06 40.61,-390.6 44.3,-400.53 49.68,-396.06"/>
<text xml:space="preserve" text-anchor="middle" x="79.95" y="-413.4" font-family="Times,serif" font-size="14.00">600</text>
</g>
<!-- 19 -->
<g id="node23" class="node">
<title>19</title>
<ellipse fill="none" stroke="black" cx="99" cy="-373.2" rx="27" ry="18"/>
<text xml:space="preserve" text-anchor="middle" x="99" y="-369" font-family="Times,serif" font-size="14.00">19</text>
</g>
<!-- 12&#45;&gt;19 -->
<g id="edge18" class="edge">
<title>12&#45;&gt;19</title>
<path fill="none" stroke="black" d="M99,-443.85C99,-432.16 99,-416.39 99,-402.82"/>
<polygon fill="black" stroke="black" points="102.5,-403.12 99,-393.12 95.5,-403.12 102.5,-403.12"/>
<text xml:space="preserve" text-anchor="middle" x="109.5" y="-413.4" font-family="Times,serif" font-size="14.00">724</text>
</g>
<!-- 17 -->
<g id="node3" class="node">
<title>17</title>
<ellipse fill="none" stroke="black" cx="243" cy="-373.2" rx="27" ry="18"/>
<text xml:space="preserve" text-anchor="middle" x="243" y="-369" font-family="Times,serif" font-size="14.00">17</text>
</g>
<!-- 3 -->
<g id="node4" class="node">
<title>3</title>
<ellipse fill="none" stroke="black" cx="99" cy="-284.4" rx="27" ry="18"/>
<text xml:space="preserve" text-anchor="middle" x="99" y="-280.2" font-family="Times,serif" font-size="14.00">3</text>
</g>
<!-- 17&#45;&gt;3 -->
<g id="edge2" class="edge">
<title>17&#45;&gt;3</title>
<path fill="none" stroke="black" d="M221.55,-361.76C208.23,-355.09 190.89,-346.06 176,-337.2 159.13,-327.16 140.87,-314.94 126.37,-304.89"/>
<polygon fill="black" stroke="black" points="128.43,-302.06 118.23,-299.2 124.42,-307.8 128.43,-302.06"/>
<text xml:space="preserve" text-anchor="middle" x="186.5" y="-324.6" font-family="Times,serif" font-size="14.00">362</text>
</g>
<!-- 21 -->
<g id="node9" class="node">
<title>21</title>
<ellipse fill="none" stroke="black" cx="171" cy="-284.4" rx="27" ry="18"/>
<text xml:space="preserve" text-anchor="middle" x="171" y="-280.2" font-family="Times,serif" font-size="14.00">21</text>
</g>
<!-- 17&#45;&gt;21 -->
<g id="edge20" class="edge">
<title>17&#45;&gt;21</title>
<path fill="none" stroke="black" d="M230.46,-357.08C219.48,-343.84 203.34,-324.39 190.65,-309.09"/>
<polygon fill="black" stroke="black" points="193.68,-307.26 184.61,-301.8 188.3,-311.73 193.68,-307.26"/>
<text xml:space="preserve" text-anchor="middle" x="223.95" y="-324.6" font-family="Times,serif" font-size="14.00">239</text>
</g>
<!-- 25 -->
<g id="node11" class="node">
<title>25</title>
<ellipse fill="none" stroke="black" cx="243" cy="-284.4" rx="27" ry="18"/>
<text xml:space="preserve" text-anchor="middle" x="243" y="-280.2" font-family="Times,serif" font-size="14.00">25</text>
</g>
<!-- 17&#45;&gt;25 -->
<g id="edge24" class="edge">
<title>17&#45;&gt;25</title>
<path fill="none" stroke="black" d="M243,-355.05C243,-343.36 243,-327.59 243,-314.02"/>
<polygon fill="black" stroke="black" points="246.5,-314.32 243,-304.32 239.5,-314.32 246.5,-314.32"/>
<text xml:space="preserve" text-anchor="middle" x="250" y="-324.6" font-family="Times,serif" font-size="14.00">87</text>
</g>
<!-- 10 -->
<g id="node16" class="node">
<title>10</title>
<ellipse fill="none" stroke="black" cx="315" cy="-284.4" rx="27" ry="18"/>
<text xml:space="preserve" text-anchor="middle" x="315" y="-280.2" font-family="Times,serif" font-size="14.00">10</text>
</g>
<!-- 17&#45;&gt;10 -->
<g id="edge9" class="edge">
<title>17&#45;&gt;10</title>
<path fill="none" stroke="black" d="M255.54,-357.08C266.52,-343.84 282.66,-324.39 295.35,-309.09"/>
<polygon fill="black" stroke="black" points="297.7,-311.73 301.39,-301.8 292.32,-307.26 297.7,-311.73"/>
<text xml:space="preserve" text-anchor="middle" x="295.95" y="-324.6" font-family="Times,serif" font-size="14.00">204</text>
</g>
<!-- 20 -->
<g id="node5" class="node">
<title>20</title>
<ellipse fill="none" stroke="black" cx="315" cy="-462" rx="27" ry="18"/>
<text xml:space="preserve" text-anchor="middle" x="315" y="-457.8" font-family="Times,serif" font-size="14.00">20</text>
</g>
<!-- 20&#45;&gt;17 -->
<g id="edge16" class="edge">
<title>20&#45;&gt;17</title>
<path fill="none" stroke="black" d="M302.46,-445.88C291.48,-432.64 275.34,-413.19 262.65,-397.89"/>
<polygon fill="black" stroke="black" points="265.68,-396.06 256.61,-390.6 260.3,-400.53 265.68,-396.06"/>
<text xml:space="preserve" text-anchor="middle" x="295.95" y="-413.4" font-family="Times,serif" font-size="14.00">397</text>
</g>
<!-- 4 -->
<g id="node6" class="node">
<title>4</title>
<ellipse fill="none" stroke="black" cx="315" cy="-373.2" rx="27" ry="18"/>
<text xml:space="preserve" text-anchor="middle" x="315" y="-369" font-family="Times,serif" font-size="14.00">4</text>
</g>
<!-- 20&#45;&gt;4 -->
<g id="edge3" class="edge">
<title>20&#45;&gt;4</title>
<path fill="none" stroke="black" d="M315,-443.85C315,-432.16 315,-416.39 315,-402.82"/>
<polygon fill="black" stroke="black" points="318.5,-403.12 315,-393.12 311.5,-403.12 318.5,-403.12"/>
<text xml:space="preserve" text-anchor="middle" x="325.5" y="-413.4" font-family="Times,serif" font-size="14.00">768</text>
</g>
<!-- 9 -->
<g id="node15" class="node">
<title>9</title>
<ellipse fill="none" stroke="black" cx="387" cy="-373.2" rx="27" ry="18"/>
<text xml:space="preserve" text-anchor="middle" x="387" y="-369" font-family="Times,serif" font-size="14.00">9</text>
</g>
<!-- 20&#45;&gt;9 -->
<g id="edge8" class="edge">
<title>20&#45;&gt;9</title>
<path fill="none" stroke="black" d="M327.54,-445.88C338.52,-432.64 354.66,-413.19 367.35,-397.89"/>
<polygon fill="black" stroke="black" points="369.7,-400.53 373.39,-390.6 364.32,-396.06 369.7,-400.53"/>
<text xml:space="preserve" text-anchor="middle" x="367.95" y="-413.4" font-family="Times,serif" font-size="14.00">767</text>
</g>
<!-- 24 -->
<g id="node25" class="node">
<title>24</title>
<ellipse fill="none" stroke="black" cx="387" cy="-284.4" rx="27" ry="18"/>
<text xml:space="preserve" text-anchor="middle" x="387" y="-280.2" font-family="Times,serif" font-size="14.00">24</text>
</g>
<!-- 4&#45;&gt;24 -->
<g id="edge23" class="edge">
<title>4&#45;&gt;24</title>
<path fill="none" stroke="black" d="M327.54,-357.08C338.52,-343.84 354.66,-324.39 367.35,-309.09"/>
<polygon fill="black" stroke="black" points="369.7,-311.73 373.39,-301.8 364.32,-307.26 369.7,-311.73"/>
<text xml:space="preserve" text-anchor="middle" x="367.95" y="-324.6" font-family="Times,serif" font-size="14.00">288</text>
</g>
<!-- 14 -->
<g id="node7" class="node">
<title>14</title>
<ellipse fill="none" stroke="black" cx="416" cy="-462" rx="27" ry="18"/>
<text xml:space="preserve" text-anchor="middle" x="416" y="-457.8" font-family="Times,serif" font-size="14.00">14</text>
</g>
<!-- 5 -->
<g id="node8" class="node">
<title>5</title>
<ellipse fill="none" stroke="black" cx="459" cy="-373.2" rx="27" ry="18"/>
<text xml:space="preserve" text-anchor="middle" x="459" y="-369" font-family="Times,serif" font-size="14.00">5</text>
</g>
<!-- 14&#45;&gt;5 -->
<g id="edge4" class="edge">
<title>14&#45;&gt;5</title>
<path fill="none" stroke="black" d="M424.09,-444.67C430.18,-432.39 438.65,-415.28 445.73,-400.99"/>
<polygon fill="black" stroke="black" points="448.83,-402.62 450.13,-392.1 442.55,-399.51 448.83,-402.62"/>
<text xml:space="preserve" text-anchor="middle" x="451.85" y="-413.4" font-family="Times,serif" font-size="14.00">866</text>
</g>
<!-- 11 -->
<g id="node17" class="node">
<title>11</title>
<ellipse fill="none" stroke="black" cx="459" cy="-284.4" rx="27" ry="18"/>
<text xml:space="preserve" text-anchor="middle" x="459" y="-280.2" font-family="Times,serif" font-size="14.00">11</text>
</g>
<!-- 5&#45;&gt;11 -->
<g id="edge10" class="edge">
<title>5&#45;&gt;11</title>
<path fill="none" stroke="black" d="M459,-355.05C459,-343.36 459,-327.59 459,-314.02"/>
<polygon fill="black" stroke="black" points="462.5,-314.32 459,-304.32 455.5,-314.32 462.5,-314.32"/>
<text xml:space="preserve" text-anchor="middle" x="469.5" y="-324.6" font-family="Times,serif" font-size="14.00">788</text>
</g>
<!-- 6 -->
<g id="node10" class="node">
<title>6</title>
<ellipse fill="none" stroke="black" cx="171" cy="-195.6" rx="27" ry="18"/>
<text xml:space="preserve" text-anchor="middle" x="171" y="-191.4" font-family="Times,serif" font-size="14.00">6</text>
</g>
<!-- 21&#45;&gt;6 -->
<g id="edge5" class="edge">
<title>21&#45;&gt;6</title>
<path fill="none" stroke="black" d="M171,-266.25C171,-254.56 171,-238.79 171,-225.22"/>
<polygon fill="black" stroke="black" points="174.5,-225.52 171,-215.52 167.5,-225.52 174.5,-225.52"/>
<text xml:space="preserve" text-anchor="middle" x="178" y="-235.8" font-family="Times,serif" font-size="14.00">52</text>
</g>
<!-- 22 -->
<g id="node13" class="node">
<title>22</title>
<ellipse fill="none" stroke="black" cx="171" cy="-106.8" rx="27" ry="18"/>
<text xml:space="preserve" text-anchor="middle" x="171" y="-102.6" font-family="Times,serif" font-size="14.00">22</text>
</g>
<!-- 6&#45;&gt;22 -->
<g id="edge21" class="edge">
<title>6&#45;&gt;22</title>
<path fill="none" stroke="black" d="M171,-177.45C171,-165.76 171,-149.99 171,-136.42"/>
<polygon fill="black" stroke="black" points="174.5,-136.72 171,-126.72 167.5,-136.72 174.5,-136.72"/>
<text xml:space="preserve" text-anchor="middle" x="181.5" y="-147" font-family="Times,serif" font-size="14.00">229</text>
</g>
<!-- 7 -->
<g id="node12" class="node">
<title>7</title>
<ellipse fill="none" stroke="black" cx="243" cy="-195.6" rx="27" ry="18"/>
<text xml:space="preserve" text-anchor="middle" x="243" y="-191.4" font-family="Times,serif" font-size="14.00">7</text>
</g>
<!-- 25&#45;&gt;7 -->
<g id="edge6" class="edge">
<title>25&#45;&gt;7</title>
<path fill="none" stroke="black" d="M243,-266.25C243,-254.56 243,-238.79 243,-225.22"/>
<polygon fill="black" stroke="black" points="246.5,-225.52 243,-215.52 239.5,-225.52 246.5,-225.52"/>
<text xml:space="preserve" text-anchor="middle" x="250" y="-235.8" font-family="Times,serif" font-size="14.00">35</text>
</g>
<!-- 16 -->
<g id="node21" class="node">
<title>16</title>
<ellipse fill="none" stroke="black" cx="243" cy="-106.8" rx="27" ry="18"/>
<text xml:space="preserve" text-anchor="middle" x="243" y="-102.6" font-family="Times,serif" font-size="14.00">16</text>
</g>
<!-- 7&#45;&gt;16 -->
<g id="edge15" class="edge">
<title>7&#45;&gt;16</title>
<path fill="none" stroke="black" d="M243,-177.45C243,-165.76 243,-149.99 243,-136.42"/>
<polygon fill="black" stroke="black" points="246.5,-136.72 243,-126.72 239.5,-136.72 246.5,-136.72"/>
<text xml:space="preserve" text-anchor="middle" x="253.5" y="-147" font-family="Times,serif" font-size="14.00">641</text>
</g>
<!-- 18 -->
<g id="node22" class="node">
<title>18</title>
<ellipse fill="none" stroke="black" cx="315" cy="-106.8" rx="27" ry="18"/>
<text xml:space="preserve" text-anchor="middle" x="315" y="-102.6" font-family="Times,serif" font-size="14.00">18</text>
</g>
<!-- 7&#45;&gt;18 -->
<g id="edge17" class="edge">
<title>7&#45;&gt;18</title>
<path fill="none" stroke="black" d="M255.54,-179.48C266.52,-166.24 282.66,-146.79 295.35,-131.49"/>
<polygon fill="black" stroke="black" points="297.7,-134.13 301.39,-124.2 292.32,-129.66 297.7,-134.13"/>
<text xml:space="preserve" text-anchor="middle" x="295.95" y="-147" font-family="Times,serif" font-size="14.00">272</text>
</g>
<!-- 8 -->
<g id="node14" class="node">
<title>8</title>
<ellipse fill="none" stroke="black" cx="171" cy="-18" rx="27" ry="18"/>
<text xml:space="preserve" text-anchor="middle" x="171" y="-13.8" font-family="Times,serif" font-size="14.00">8</text>
</g>
<!-- 22&#45;&gt;8 -->
<g id="edge7" class="edge">
<title>22&#45;&gt;8</title>
<path fill="none" stroke="black" d="M171,-88.65C171,-76.96 171,-61.19 171,-47.62"/>
<polygon fill="black" stroke="black" points="174.5,-47.92 171,-37.92 167.5,-47.92 174.5,-47.92"/>
<text xml:space="preserve" text-anchor="middle" x="181.5" y="-58.2" font-family="Times,serif" font-size="14.00">663</text>
</g>
<!-- 13 -->
<g id="node19" class="node">
<title>13</title>
<ellipse fill="none" stroke="black" cx="315" cy="-195.6" rx="27" ry="18"/>
<text xml:space="preserve" text-anchor="middle" x="315" y="-191.4" font-family="Times,serif" font-size="14.00">13</text>
</g>
<!-- 10&#45;&gt;13 -->
<g id="edge12" class="edge">
<title>10&#45;&gt;13</title>
<path fill="none" stroke="black" d="M315,-266.25C315,-254.56 315,-238.79 315,-225.22"/>
<polygon fill="black" stroke="black" points="318.5,-225.52 315,-215.52 311.5,-225.52 318.5,-225.52"/>
<text xml:space="preserve" text-anchor="middle" x="325.5" y="-235.8" font-family="Times,serif" font-size="14.00">370</text>
</g>
<!-- 15 -->
<g id="node20" class="node">
<title>15</title>
<ellipse fill="none" stroke="black" cx="387" cy="-195.6" rx="27" ry="18"/>
<text xml:space="preserve" text-anchor="middle" x="387" y="-191.4" font-family="Times,serif" font-size="14.00">15</text>
</g>
<!-- 10&#45;&gt;15 -->
<g id="edge14" class="edge">
<title>10&#45;&gt;15</title>
<path fill="none" stroke="black" d="M327.54,-268.28C338.52,-255.04 354.66,-235.59 367.35,-220.29"/>
<polygon fill="black" stroke="black" points="369.7,-222.93 373.39,-213 364.32,-218.46 369.7,-222.93"/>
<text xml:space="preserve" text-anchor="middle" x="367.95" y="-235.8" font-family="Times,serif" font-size="14.00">431</text>
</g>
<!-- 1 -->
<g id="node18" class="node">
<title>1</title>
<ellipse fill="none" stroke="black" cx="315" cy="-550.8" rx="27" ry="18"/>
<text xml:space="preserve" text-anchor="middle" x="315" y="-546.6" font-family="Times,serif" font-size="14.00">1</text>
</g>
<!-- 1&#45;&gt;12 -->
<g id="edge11" class="edge">
<title>1&#45;&gt;12</title>
<path fill="none" stroke="black" d="M292.29,-540.67C254.05,-525.31 176.63,-494.2 132.25,-476.36"/>
<polygon fill="black" stroke="black" points="133.72,-473.18 123.13,-472.7 131.11,-479.67 133.72,-473.18"/>
<text xml:space="preserve" text-anchor="middle" x="236.85" y="-502.2" font-family="Times,serif" font-size="14.00">133</text>
</g>
<!-- 1&#45;&gt;20 -->
<g id="edge19" class="edge">
<title>1&#45;&gt;20</title>
<path fill="none" stroke="black" d="M315,-532.65C315,-520.96 315,-505.19 315,-491.62"/>
<polygon fill="black" stroke="black" points="318.5,-491.92 315,-481.92 311.5,-491.92 318.5,-491.92"/>
<text xml:space="preserve" text-anchor="middle" x="325.5" y="-502.2" font-family="Times,serif" font-size="14.00">124</text>
</g>
<!-- 1&#45;&gt;14 -->
<g id="edge13" class="edge">
<title>1&#45;&gt;14</title>
<path fill="none" stroke="black" d="M330.78,-536.24C346.99,-522.31 372.45,-500.42 391.33,-484.2"/>
<polygon fill="black" stroke="black" points="393.55,-486.91 398.85,-477.74 388.98,-481.6 393.55,-486.91"/>
<text xml:space="preserve" text-anchor="middle" x="385.05" y="-502.2" font-family="Times,serif" font-size="14.00">425</text>
</g>
<!-- 23 -->
<g id="node24" class="node">
<title>23</title>
<ellipse fill="none" stroke="black" cx="27" cy="-284.4" rx="27" ry="18"/>
<text xml:space="preserve" text-anchor="middle" x="27" y="-280.2" font-family="Times,serif" font-size="14.00">23</text>
</g>
<!-- 19&#45;&gt;23 -->
<g id="edge22" class="edge">
<title>19&#45;&gt;23</title>
<path fill="none" stroke="black" d="M83.28,-358.17C76.72,-352 69.2,-344.51 63,-337.2 56.08,-329.04 49.19,-319.55 43.32,-310.95"/>
<polygon fill="black" stroke="black" points="46.25,-309.04 37.8,-302.65 40.43,-312.91 46.25,-309.04"/>
<text xml:space="preserve" text-anchor="middle" x="70" y="-324.6" font-family="Times,serif" font-size="14.00">78</text>
</g>
</g>
</svg>
